<?xml version="1.0" standalone="no"?>
<!DOCTYPE svg PUBLIC "-//W3C//DTD SVG 20010904//EN"
 "http://www.w3.org/TR/2001/REC-SVG-20010904/DTD/svg10.dtd">
<svg version="1.0" xmlns="http://www.w3.org/2000/svg"
 width="261.000000pt" height="261.000000pt" viewBox="0 0 261.000000 261.000000"
 preserveAspectRatio="xMidYMid meet">
<metadata>
Created by potrace 1.11, written by Peter Selinger 2001-2013
</metadata>
<g transform="translate(0.000000,261.000000) scale(0.100000,-0.100000)"
fill="#000000" stroke="none">
<path d="M1556 2594 c-172 -31 -357 -111 -490 -212 -488 -373 -598 -1043 -253
-1551 l50 -74 -44 -41 c-25 -23 -60 -54 -80 -71 -85 -73 -184 -160 -189 -165
-3 -3 -54 -48 -115 -100 -60 -52 -112 -97 -115 -100 -3 -3 -57 -51 -120 -105
-140 -122 -202 -180 -175 -167 11 6 94 38 185 72 91 33 174 65 185 70 11 5 85
34 165 64 80 30 259 97 398 150 139 53 258 96 266 96 7 0 43 -13 79 -30 126
-57 246 -82 407 -86 160 -3 221 4 355 42 172 48 371 167 491 292 l44 46 -22
25 c-13 14 -30 31 -39 38 -30 23 -121 164 -164 256 -64 136 -86 235 -91 402
-2 97 1 163 11 215 39 197 125 371 254 512 l51 56 -74 70 c-156 148 -355 251
-566 293 -87 17 -314 19 -404 3z"/>
</g>
</svg>
