<?xml version="1.0" standalone="no"?>
<!DOCTYPE svg PUBLIC "-//W3C//DTD SVG 20010904//EN"
 "http://www.w3.org/TR/2001/REC-SVG-20010904/DTD/svg10.dtd">
<svg version="1.0" xmlns="http://www.w3.org/2000/svg"
 width="1307.000000pt" height="1307.000000pt" viewBox="0 0 1307.000000 1307.000000"
 preserveAspectRatio="xMidYMid meet">
<metadata>
Created by potrace 1.11, written by Peter Selinger 2001-2013
</metadata>
<g transform="translate(0.000000,1307.000000) scale(0.100000,-0.100000)"
fill="#000000" stroke="none">
<path d="M7530 12050 c-25 -5 -63 -12 -85 -15 -91 -16 -318 -79 -390 -110 -16
-7 -57 -23 -90 -36 -78 -30 -318 -152 -420 -214 -357 -215 -729 -537 -1030
-890 -33 -38 -63 -72 -66 -75 -3 -3 -50 -63 -104 -135 -244 -322 -439 -664
-586 -1030 -33 -83 -105 -288 -119 -340 -39 -145 -79 -307 -84 -340 -4 -22 -8
-47 -11 -55 -2 -8 -6 -37 -10 -64 -3 -27 -8 -52 -9 -55 -2 -3 -7 -37 -11 -74
-3 -37 -8 -78 -11 -90 -7 -34 -17 -251 -17 -357 -1 -107 11 -353 18 -372 2 -7
6 -40 9 -72 3 -33 11 -87 16 -120 11 -57 14 -75 26 -136 27 -136 84 -335 142
-494 l29 -80 -118 -185 c-113 -178 -291 -471 -335 -549 -11 -20 -47 -82 -79
-137 -258 -442 -460 -874 -501 -1066 -10 -47 -11 -148 -3 -200 36 -230 300
-446 714 -584 77 -26 143 -50 148 -54 4 -4 -9 -65 -29 -137 -75 -266 -75 -265
-75 -374 -1 -166 40 -329 126 -500 56 -113 98 -179 218 -338 115 -155 112
-137 53 -343 -21 -73 -34 -128 -50 -215 -34 -179 -29 -331 15 -454 123 -339
536 -638 997 -719 115 -20 365 -26 457 -11 28 4 77 11 110 14 33 4 67 9 75 11
8 2 33 7 55 9 51 7 101 14 145 21 19 3 53 8 75 11 22 3 137 21 255 41 118 19
224 36 235 38 22 3 47 7 205 36 58 10 116 20 130 22 21 3 34 24 87 138 34 74
80 172 102 219 118 254 141 303 141 307 0 2 -12 1 -27 -2 -16 -2 -93 -16 -173
-30 -80 -14 -156 -28 -170 -31 -23 -4 -74 -14 -155 -28 -16 -3 -86 -14 -155
-26 -69 -12 -137 -23 -151 -25 -101 -17 -271 -45 -304 -50 -23 -3 -50 -7 -60
-9 -11 -2 -40 -7 -65 -11 -25 -3 -57 -8 -71 -11 -14 -2 -41 -6 -60 -8 -19 -3
-101 -15 -184 -26 -192 -28 -351 -29 -460 -5 -212 48 -352 140 -418 274 -30
62 -32 72 -32 171 1 68 6 124 17 160 9 30 19 66 21 80 3 14 12 52 20 85 28
105 29 118 33 240 3 104 0 129 -19 186 -26 75 -34 88 -187 289 -103 135 -192
287 -219 372 -24 73 -21 133 10 227 28 87 63 225 73 286 15 97 19 149 18 225
-1 123 -13 179 -64 317 l-30 82 -47 8 c-25 4 -48 8 -51 8 -3 1 -23 5 -45 9
-258 51 -629 190 -630 237 -1 35 118 290 243 519 194 357 475 829 739 1238
l124 192 -59 138 c-150 346 -222 623 -249 947 -14 162 -7 479 11 595 3 14 7
43 10 65 13 101 35 207 71 350 8 33 17 67 19 76 12 46 99 295 107 304 5 5 9
15 9 21 0 26 121 279 208 434 288 514 706 974 1187 1303 108 74 136 91 245
149 30 17 60 33 65 37 23 17 211 94 297 122 158 51 376 91 506 93 12 0 22 5
22 12 0 6 -24 63 -54 125 -53 114 -85 182 -166 357 -24 50 -46 91 -49 91 -3
-1 -26 -5 -51 -9z"/>
<path d="M8295 10428 c-22 -4 -55 -10 -74 -14 -58 -10 -214 -61 -305 -98 -682
-282 -1331 -999 -1596 -1761 -66 -187 -117 -407 -135 -573 -3 -26 -8 -67 -11
-92 -7 -60 -7 -327 1 -415 6 -71 20 -179 30 -225 2 -14 10 -50 16 -80 12 -64
41 -165 74 -268 l24 -72 -104 -168 c-247 -396 -445 -765 -549 -1017 -25 -63
-48 -174 -47 -238 0 -160 98 -306 277 -414 51 -31 89 -50 209 -103 11 -5 37
-14 58 -20 27 -8 37 -16 33 -26 -41 -106 -51 -164 -51 -284 1 -101 5 -139 24
-200 44 -145 116 -279 224 -417 l48 -62 -22 -83 c-76 -298 -73 -453 13 -608
163 -295 546 -495 928 -485 90 2 462 49 630 80 14 2 68 11 120 20 186 31 204
35 212 43 4 4 39 77 78 162 40 85 87 187 105 225 18 39 49 106 70 150 20 44
41 88 47 98 10 20 0 20 -117 -3 -27 -5 -66 -12 -85 -15 -19 -3 -96 -17 -170
-30 -74 -13 -153 -26 -175 -30 -23 -3 -52 -8 -65 -11 -14 -2 -36 -6 -50 -9
-14 -2 -38 -6 -55 -9 -16 -2 -93 -14 -170 -26 -77 -11 -151 -23 -165 -25 -148
-26 -330 -27 -412 -2 -67 20 -134 69 -162 116 -27 46 -25 113 7 236 45 174 51
278 23 380 -14 47 -40 91 -120 199 -159 213 -187 275 -161 347 49 136 76 293
71 415 -5 106 -8 120 -46 227 -39 106 -38 104 -86 111 -22 4 -55 11 -73 16
-17 5 -34 9 -36 9 -46 -1 -325 90 -325 106 0 29 87 199 235 460 76 135 232
392 358 590 77 121 142 227 144 235 2 9 -11 49 -30 90 -101 218 -156 407 -180
610 -13 118 -15 326 -3 415 10 75 37 228 41 235 2 4 7 22 10 41 3 19 19 77 36
129 152 472 457 906 869 1234 47 37 197 129 270 166 82 41 271 114 327 125 79
17 186 35 227 38 26 3 49 6 50 8 2 2 -9 31 -25 64 -16 33 -49 105 -74 160
-103 222 -150 321 -160 335 -8 12 -19 14 -50 8z"/>
<path d="M8970 8782 c-462 -152 -882 -606 -1044 -1127 -20 -65 -43 -168 -51
-225 -3 -25 -8 -61 -10 -80 -11 -83 -5 -271 10 -360 17 -94 27 -141 39 -180
l13 -44 -65 -106 c-247 -398 -330 -628 -282 -777 31 -94 118 -194 218 -248
l47 -26 1 -82 c0 -50 7 -105 18 -137 19 -61 81 -187 102 -207 22 -22 26 -52
14 -102 -29 -123 -17 -241 37 -343 109 -209 370 -345 643 -337 47 2 99 6 115
10 17 4 53 10 80 14 61 7 218 34 221 38 1 1 40 85 87 187 76 164 161 348 202
435 8 17 10 31 5 33 -5 2 -58 -6 -117 -17 -60 -11 -124 -23 -143 -26 -19 -3
-55 -10 -80 -15 -49 -10 -141 -26 -205 -35 -22 -3 -46 -8 -54 -11 -7 -2 -51
-7 -97 -11 -100 -7 -103 -4 -82 89 30 130 8 240 -66 333 -18 22 -42 55 -55 73
l-23 33 18 71 c10 41 17 111 17 163 1 77 -4 104 -32 185 -18 52 -37 102 -42
111 -5 10 -35 21 -84 29 -42 7 -79 19 -81 25 -3 7 5 27 16 46 12 19 47 77 77
129 61 106 192 314 235 374 31 43 34 25 -30 171 -27 63 -38 91 -48 120 -30 87
-46 286 -30 375 14 80 19 98 36 157 50 163 174 367 305 499 76 76 162 144 183
144 6 0 12 4 14 8 4 10 89 46 158 66 53 16 131 29 178 30 26 1 26 0 7 39 -8
18 -66 145 -129 282 -99 214 -118 250 -138 252 -13 2 -61 -10 -108 -25z"/>
</g>
</svg>
